<svg xmlns="http://www.w3.org/2000/svg" width="430" height="430" style="width:100%;height:100%;transform:translate3d(0,0,0);content-visibility:visible" viewBox="0 0 430 430"><defs><clipPath id="m"><path d="M0 0h430v430H0z"/></clipPath><clipPath id="G"><path d="M0 0h430v430H0z"/></clipPath><clipPath id="I"><path d="M0 0h430v430H0z"/></clipPath><clipPath id="F"><path d="M0 0h430v430H0z"/></clipPath><clipPath id="y"><path d="M0 0h430v430H0z"/></clipPath><clipPath id="C"><path d="M0 0h430v430H0z"/></clipPath><clipPath id="A"><path d="M0 0h430v430H0z"/></clipPath><clipPath id="t"><path d="M0 0h430v430H0z"/></clipPath><clipPath id="w"><path d="M0 0h430v430H0z"/></clipPath><clipPath id="u"><path d="M0 0h430v430H0z"/></clipPath><clipPath id="n"><path d="M0 0h430v430H0z"/></clipPath><clipPath id="r"><path d="M0 0h430v430H0z"/></clipPath><clipPath id="o"><path d="M0 0h430v430H0z"/></clipPath><path id="a" style="display:none"/><path id="b" style="display:none"/><path id="d" style="display:none"/><path id="e" style="display:none"/><path id="f" style="display:none"/><path id="g" class="primary" style="display:none"/><path id="i" class="primary" style="display:none"/><path id="k" class="primary" style="display:none"/><path id="l" class="primary" style="display:none"/><path id="c" style="display:none"/><mask id="J" mask-type="alpha"><use xmlns:ns1="http://www.w3.org/1999/xlink" ns1:href="#a"/></mask><mask id="H" mask-type="alpha"><use xmlns:ns2="http://www.w3.org/1999/xlink" ns2:href="#b"/></mask><mask id="E" mask-type="alpha"><use xmlns:ns3="http://www.w3.org/1999/xlink" ns3:href="#c"/></mask><mask id="D" mask-type="alpha"><use xmlns:ns4="http://www.w3.org/1999/xlink" ns4:href="#d"/></mask><mask id="B" mask-type="alpha"><use xmlns:ns5="http://www.w3.org/1999/xlink" ns5:href="#e"/></mask><mask id="z" mask-type="alpha"><use xmlns:ns6="http://www.w3.org/1999/xlink" ns6:href="#f"/></mask><mask id="x" mask-type="alpha"><use xmlns:ns7="http://www.w3.org/1999/xlink" ns7:href="#g"/></mask><mask id="v" mask-type="alpha"><g filter="url(#h)"><path fill="#fff" d="M0 0h430v430H0z" opacity="0"/><use xmlns:ns8="http://www.w3.org/1999/xlink" ns8:href="#i"/></g></mask><mask id="s" mask-type="alpha"><g filter="url(#j)"><path fill="#fff" d="M0 0h430v430H0z" opacity="0"/><use xmlns:ns9="http://www.w3.org/1999/xlink" ns9:href="#k"/></g></mask><mask id="p" mask-type="alpha"><use xmlns:ns10="http://www.w3.org/1999/xlink" ns10:href="#l"/></mask><filter id="h" width="100%" height="100%" x="0%" y="0%" filterUnits="objectBoundingBox"><feComponentTransfer in="SourceGraphic"><feFuncA tableValues="1.0 0.0" type="table"/></feComponentTransfer></filter><filter id="j" width="100%" height="100%" x="0%" y="0%" filterUnits="objectBoundingBox"><feComponentTransfer in="SourceGraphic"><feFuncA tableValues="1.0 0.0" type="table"/></feComponentTransfer></filter></defs><g clip-path="url(#m)"><g clip-path="url(#n)" style="display:none"><g style="display:none"><path class="primary"/><path class="primary" style="mix-blend-mode:multiply"/></g><g clip-path="url(#o)" mask="url(#p)" style="display:none"><g style="display:none"><path class="secondary"/><path class="secondary" style="mix-blend-mode:multiply"/></g><g style="display:none"><path class="secondary"/><path class="secondary" style="mix-blend-mode:multiply"/></g><g style="display:none"><path class="secondary"/><path class="secondary" style="mix-blend-mode:multiply"/></g></g><g clip-path="url(#r)" mask="url(#s)" style="display:none"><g style="display:none"><path class="primary"/><path class="primary" style="mix-blend-mode:multiply"/></g><g style="display:none"><path class="primary"/><path class="primary" style="mix-blend-mode:multiply"/></g><g style="display:none"><path class="primary"/><path class="primary" style="mix-blend-mode:multiply"/></g></g></g><g clip-path="url(#t)" style="display:none"><g style="display:none"><path class="primary"/><path class="primary" style="mix-blend-mode:multiply"/></g><g clip-path="url(#u)" mask="url(#v)" style="display:none"><g style="display:none"><path class="primary"/><path class="primary" style="mix-blend-mode:multiply"/></g><g style="display:none"><path class="primary"/><path class="primary" style="mix-blend-mode:multiply"/></g><g style="display:none"><path class="primary"/><path class="primary" style="mix-blend-mode:multiply"/></g></g><g clip-path="url(#w)" mask="url(#x)" style="display:none"><g style="display:none"><path class="secondary"/><path class="secondary" style="mix-blend-mode:multiply"/></g><g style="display:none"><path class="secondary"/><path class="secondary" style="mix-blend-mode:multiply"/></g><g style="display:none"><path class="secondary"/><path class="secondary" style="mix-blend-mode:multiply"/></g></g></g><g clip-path="url(#y)" style="display:none"><g mask="url(#z)" style="display:none"><path class="primary"/><path class="primary" style="mix-blend-mode:multiply"/></g><g clip-path="url(#A)" mask="url(#B)" style="display:none"><path class="primary"/><path class="primary" style="mix-blend-mode:multiply"/></g><g style="display:none"><path class="primary"/><path class="primary" style="mix-blend-mode:multiply"/></g><g style="display:none"><path class="primary"/><path class="primary" style="mix-blend-mode:multiply"/></g><g clip-path="url(#C)" mask="url(#D)" style="display:none"><path class="primary"/><path class="primary" style="mix-blend-mode:multiply"/></g><g mask="url(#E)" style="display:none"><path class="primary"/><path class="primary" style="mix-blend-mode:multiply"/></g></g><g fill="#4AB3FC" clip-path="url(#F)" style="display:block"><g style="display:block"><path d="M49.409 145a3 3 0 0 0-3 3v219a3 3 0 0 0 3 3h69a3 3 0 0 0 3-3V148a3 3 0 0 0-3-3z" class="primary"/><path fill-opacity=".5" d="M-14.5-112.5h32v225h-32a3 3 0 0 1-3-3v-219a3 3 0 0 1 3-3" class="primary" style="mix-blend-mode:multiply" transform="translate(63.909 257.5)"/></g><g style="display:block"><path d="M392.977 367V219.301c0-43.797-35.404-79.301-79.077-79.301a87.7 87.7 0 0 0-54.888 19.308l-21.724 17.428V149.54a3 3 0 0 0-3-3h-67.265a3 3 0 0 0-3 3V367a3 3 0 0 0 3 3h67.265a3 3 0 0 0 3-3V245.617c0-22.825 18.451-41.329 41.212-41.329s41.212 18.504 41.212 41.329V367a3 3 0 0 0 3 3h67.265a3 3 0 0 0 3-3" class="primary"/><path fill-opacity=".5" d="M-92.345-111.73h32v223.46h-32a3 3 0 0 1-3-3v-217.46a3 3 0 0 1 3-3m187.69 99.076V111.73h-32a3 3 0 0 1-3-3V-12.654c0-16.55-9.701-30.828-23.712-37.427a41 41 0 0 1 17.5-3.901c22.761 0 41.212 18.503 41.212 41.328" class="primary" style="mix-blend-mode:multiply" transform="translate(259.375 258.25)"/></g><g style="display:block"><path d="M83.5 30c22.076 0 40 17.924 40 40s-17.924 40-40 40-40-17.924-40-40 17.924-40 40-40" class="primary"/><path fill-opacity=".5" d="M31.755 29.986q.749 0 1.49-.027a39.85 39.85 0 0 1-26.49 10.027c-22.091 0-40-17.909-40-40 0-21.593 17.109-39.189 38.511-39.972-8.286 7.329-13.511 18.04-13.511 29.972 0 22.091 17.909 40 40 40" class="primary" style="mix-blend-mode:multiply" transform="translate(76.688 70)"/></g></g><g clip-path="url(#G)" style="display:none"><g mask="url(#H)" style="display:none"><path class="primary"/><path class="primary" style="mix-blend-mode:multiply"/></g><g clip-path="url(#I)" mask="url(#J)" style="display:none"><path class="primary"/><path class="primary" style="mix-blend-mode:multiply"/></g><g style="display:none"><path class="primary"/><path class="primary" style="mix-blend-mode:multiply"/></g></g></g></svg>